<svg id="Layer_1" data-name="Layer 1" xmlns="http://www.w3.org/2000/svg" viewBox="0 0 324.78 175.27"><path d="M77.3,146.93a43.1,43.1,0,0,0,5.1,12.93,24.93,24.93,0,0,0,1.42,2.1c.43.57,1.11,1.08,1.2,1.82.19,1.54-1,2.86-1.86,3.88C78.43,173,74.24,179,72,185.8A25.45,25.45,0,0,0,71.87,202c1.85,5.43,5.85,9.9,10.38,13.28,7,5.19,15.39,8.3,23.73,10.47a3.39,3.39,0,0,0,3.28-1.12c.57-.66.94-2-.24-2.34-7.4-1.93-14.81-4.55-21.2-8.83-4.62-3.09-8.72-7.09-10.95-12.26-5-11.53,2.15-23.66,9.68-32.16a11.07,11.07,0,0,0,3-5.16,4.34,4.34,0,0,0-.14-2.78,16.3,16.3,0,0,0-1.53-2,38.45,38.45,0,0,1-5.91-13.7c-.52-2.33-5.08-.42-4.64,1.55Z" transform="translate(-38.44 -53.72)"/><path d="M125.79,200c-.55,1.64-1.12,3.28-1.67,4.92-.05.16.61.46.62.47a11.78,11.78,0,0,0,1.65.65,11.33,11.33,0,0,0,1.71.45c.13,0,.72.16.78,0,.55-1.64,1.11-3.27,1.66-4.91.06-.17-.61-.47-.61-.47a10.1,10.1,0,0,0-1.65-.65,11.33,11.33,0,0,0-1.71-.45c-.13,0-.72-.17-.78,0Z" transform="translate(-38.44 -53.72)"/><path d="M132.18,200.93l-.46,4a2.71,2.71,0,0,0,.33,1.65,3.47,3.47,0,0,0,1.36,1.38,1.94,1.94,0,0,0,1.52.25,1.32,1.32,0,0,0,.86-1l.46-4a2.72,2.72,0,0,0-.34-1.65,3.47,3.47,0,0,0-1.35-1.39,2,2,0,0,0-1.52-.24,1.32,1.32,0,0,0-.86,1Z" transform="translate(-38.44 -53.72)"/><path d="M138.62,201.81c.07.51.12,1,.14,1.55l0-.61a12.33,12.33,0,0,1-.31,3.09l.13-.56-.12.47a2.75,2.75,0,0,0,.05,1.79,2.9,2.9,0,0,0,1.28,1.46,2.28,2.28,0,0,0,1.71.21,1.91,1.91,0,0,0,1.21-1.16,15.35,15.35,0,0,0,.4-6.29,2.93,2.93,0,0,0-.93-1.7,2.48,2.48,0,0,0-1.66-.66,1.87,1.87,0,0,0-1.49.73,2.28,2.28,0,0,0-.39,1.68Z" transform="translate(-38.44 -53.72)"/><path d="M180.52,206.17c.56,5.86,6,9,11.34,9.82,5.86.91,12.85-.15,17.53-4a10.56,10.56,0,0,0,4.05-7.84c.06-1.77-4.89-1.34-5,.65a7.83,7.83,0,0,1-2.53,5.42,12,12,0,0,1-5.23,2.73l-.77.19c-.39.09.38-.07,0,0l-.45.08c-.64.11-1.29.18-1.94.24-.09,0-.49,0,0,0h-1.26l-.91,0-.46,0c-.25,0,.25,0-.17,0a12,12,0,0,1-5.91-2.07,7.82,7.82,0,0,1-3.33-5.8c-.18-1.87-5.14-1.28-5,.65Z" transform="translate(-38.44 -53.72)"/><path d="M316.27,164.47a19.51,19.51,0,0,1,6.57,8.31A22.39,22.39,0,0,1,324,183c-.72,8.47-4.37,16.59-8.12,24.11-2.36,4.75-4.94,9.4-7.54,14-1.14,2,3,4.77,4.28,2.44,4.76-8.49,9.59-17.08,12.86-26.28,2.77-7.79,4.5-16.49,1.63-24.5a24.66,24.66,0,0,0-8.4-11.07c-.84-.64-2.26-1.22-3.11-.25s-.18,2.41.65,3Z" transform="translate(-38.44 -53.72)"/><path d="M319.23,136.22a23.79,23.79,0,0,1,9.32-1.18,20.73,20.73,0,0,1,7.65,2.21,10.78,10.78,0,0,1,1.37.79l.92.61.4.28c-.52-.37.09.07.19.15l.87.69c.13.11.9.79.42.36.55.5,1.09,1,1.61,1.56l.42.45c-.29-.32,0-.06,0,0,.28.31.55.62.81.94.49.59,1,1.19,1.41,1.81.18.24.67,1,1,1.48.44.68.85,1.38,1.25,2.09,5.42,9.73,7.61,23.5,1.48,33.45-3.64,5.92-9.84,9-16.61,9.77-1,.1.46,1.77.66,2a4,4,0,0,0,2.79,1.44c6.38-.72,12.48-3.53,16.28-8.86,3.47-4.86,4.72-11,4.53-16.92-.41-13.11-7.38-26.75-18.72-33.68a25.61,25.61,0,0,0-21.52-2.81c-1.13.36,2.11,3.83,3.46,3.4Z" transform="translate(-38.44 -53.72)"/><path d="M326.44,171.84c.62-4.57,4.11-8.24,8-10.45a19.32,19.32,0,0,1,6.09-2.31,13.35,13.35,0,0,1,3-.25,11.51,11.51,0,0,1,1.15.14c.43.07-.22-.08.22.05.12,0,.87.31.3.08.52.21,2.06.78,2.13-.2s-1.7-1.87-2.34-2.12c-4.64-1.82-9.79-.79-14.06,1.53-4.47,2.42-8.23,6.44-8.94,11.62-.18,1.34,4.25,3.47,4.46,1.91Z" transform="translate(-38.44 -53.72)"/><path d="M329.87,161.5a15.82,15.82,0,0,1,5.75,6.28c1.24,2.26,2.43,5.09,2.21,7.73-.08,1,1.4.84,2,.73a6,6,0,0,0,1.83-.63c.3-.17.9-.51.93-.89a14.94,14.94,0,0,0-2.18-8.3,17,17,0,0,0-6.07-6.75,3.74,3.74,0,0,0-3.15.15c-.28.13-2.22,1.18-1.34,1.68Z" transform="translate(-38.44 -53.72)"/><path d="M340.28,182.46l-1.34,42.73c0,.95,1,2,1.55,2.7.13.15,1.64,1.61,1.66.92l1.35-42.74c0-.95-1-2-1.55-2.7-.13-.15-1.64-1.61-1.67-.91Z" transform="translate(-38.44 -53.72)"/><path d="M349.57,201.54l-20.13,2.77c-.76.1,1,1.49,1.08,1.57.7.5,1.9,1.37,2.85,1.25l20.12-2.77c.76-.1-1-1.49-1.08-1.57-.7-.51-1.9-1.38-2.84-1.25Z" transform="translate(-38.44 -53.72)"/><path d="M100.16,175.73l51.69-12.4,14.8-3.55-1.9-4.52-58.88,19.47c-2.35.78-.16,5.05,1.91,4.52q30.66-7.92,61.44-15.39l-2.35-1.34-.31-.79v-1.08c-.12.71-3.6,1.4-4.36,1.63L156,164.16l-12.36,3.75-24.95,7.57-14,4.26c-2.46.75-.13,4.73,1.9,4.52,8.57-.9,16.82-3.35,25-6a239,239,0,0,1,25.62-7c5.16-1.05,10.35-1.95,15.53-2.85,2.39-.41.22-4.88-1.9-4.51-9,1.56-18.12,3.11-27,5.51-8.3,2.24-16.36,5.26-24.66,7.5a92.94,92.94,0,0,1-14.49,2.81l1.9,4.52,53.94-16.38c2.43-.73,5-1.33,7.32-2.27,2.18-.88,3.38-2.74,1.8-4.93-.48-.68-1.41-1.57-2.35-1.34q-30.78,7.47-61.45,15.39l1.91,4.52,58.87-19.47c2.36-.78.17-5-1.9-4.52l-51.69,12.4-14.8,3.55c-2.39.57-.19,5,1.9,4.52Z" transform="translate(-38.44 -53.72)"/><path d="M223.61,161.86,278,170.8l15.51,2.55,3.86-2.9-60.23-8c-.94-.12-2.12.77-2.82,1.3-.21.16-1.75,1.41-1,1.61,19.65,5.5,39.87,8.66,60,11.86l3.86-2.9-51.25-4.54-14.61-1.29c-1-.09-2.09.75-2.82,1.3-.26.19-1.72,1.32-1,1.6,7.42,3.14,15.92,3.36,23.8,4.41q13.14,1.74,26.18,4.18,7.31,1.37,14.58,3c.89.19,2.17-.81,2.82-1.3.19-.14,1.76-1.45,1-1.6q-12.83-2.81-25.79-4.92c-8.62-1.41-17.29-2.44-25.94-3.6a49.55,49.55,0,0,1-12.83-3l-3.86,2.9L278.69,176l14.61,1.29c1,.09,2.09-.75,2.82-1.3.17-.13,1.75-1.49,1-1.6-20.13-3.2-40.35-6.36-60-11.87l-3.86,2.91,60.23,8c.94.13,2.12-.77,2.82-1.3.18-.13,1.76-1.49,1-1.6L243,161.5,227.47,159c-.92-.16-2.14.78-2.82,1.3-.17.13-1.76,1.48-1,1.6Z" transform="translate(-38.44 -53.72)"/><path d="M97.56,61.81c-4.35.28-8.54,2.37-12.14,4.7A63.16,63.16,0,0,0,64.53,90.16c-2,4.16-3.63,8.79-3.48,13.48a14.23,14.23,0,0,0,6.76,11.94,2.67,2.67,0,0,0,3.34-.54c.71-.76,1.14-2.38,0-3.06a14.52,14.52,0,0,1-2.35-1.78,4.67,4.67,0,0,1-.67-.72,12.9,12.9,0,0,1-.81-1.13,6.85,6.85,0,0,1-1-2.14q-.19-.61-.33-1.23c0-.2-.08-.39-.11-.59s-.07-.46-.07-.45a17.45,17.45,0,0,1,0-2.8c0-.47.08-.93.14-1.4.05-.32.1-.63.22-1.2A29.33,29.33,0,0,1,67,95.49c.32-1,.83-2.25,1.13-2.9a52.37,52.37,0,0,1,7.63-11.92A66,66,0,0,1,81,75.17a44.93,44.93,0,0,1,5.17-4.23c1-.73,2.08-1.42,3.18-2,.23-.14.47-.27.71-.4a2.91,2.91,0,0,1,.42-.23c.5-.24,1-.48,1.51-.7s1-.41,1.48-.59l.78-.26.55-.16.45-.1q.38-.09.75-.15a14.09,14.09,0,0,1,1.44-.16c2.78-.18,3.36-4.54.12-4.33Z" transform="translate(-38.44 -53.72)"/><path d="M105.88,64.82c-3.78,9.33-8.37,18.3-11.77,27.79-3.22,9-6.18,19.41-3.66,28.92A22,22,0,0,0,99.33,134c.84.58,2.25.27,3.14,0,.27-.08,2.26-.88,1.49-1.41a21,21,0,0,1-8.21-10.73,31.34,31.34,0,0,1-1-13.38c1.2-10.32,5.41-20.2,9.57-29.62,2.13-4.84,4.39-9.63,6.38-14.53.43-1.06-4.3-.79-4.82.5Z" transform="translate(-38.44 -53.72)"/><path d="M129.61,67.59c-.13,17.84,2.67,36.34,10.48,52.53,5.19,10.78,14.33,22.93,27.47,23.25,6.93.17,13.09-3.63,17.87-8.36,1.69-1.68-2.42-4.45-3.86-3-3.85,3.82-8.69,7.22-14.09,7.68-4.63.39-8.39-1.33-12-4.29-4.34-3.6-7.91-9-10.58-14.25a93.45,93.45,0,0,1-7.54-21.73,134.1,134.1,0,0,1-3.13-30.29c0-2-4.63-3.81-4.65-1.52Z" transform="translate(-38.44 -53.72)"/><path d="M160.1,64.17c-3.25,8.57-3.41,18.52-1.78,27.46,1.68,9.18,5.58,18.69,13.5,24.19a25,25,0,0,0,16,4.09c1-.07,2.46-.58,2.42-1.78s-1.65-1.62-2.57-1.55A18.58,18.58,0,0,1,176,113.82a24.62,24.62,0,0,1-8.05-8.94c-4.43-8-5.95-17.52-5.57-26.57A42.7,42.7,0,0,1,165,64.84c.85-2.26-4.1-2.68-4.86-.67Z" transform="translate(-38.44 -53.72)"/><path d="M206.79,63.39c5.49,8,11.43,15.77,16.25,24.25,4.49,7.89,8.92,17.39,7.35,26.72a20.93,20.93,0,0,1-7.9,12.79c-.94.76-.34,2,.51,2.5a3.16,3.16,0,0,0,3.48-.08,24.22,24.22,0,0,0,8.36-12.24,27.55,27.55,0,0,0-.07-13.59c-2.36-10.21-8.22-19.47-14.05-28-3.07-4.51-6.31-8.89-9.39-13.4a3.14,3.14,0,0,0-3.28-1.15c-.94.22-2,1.2-1.26,2.22Z" transform="translate(-38.44 -53.72)"/><path d="M212,72.56c5.23,5.78,8.61,13.29,10.53,20.79,2,7.88,2.68,16.57.16,24.41A24,24,0,0,1,216,128.43c-1.39,1.25,2.9,3.7,4.12,2.6,6.23-5.61,8.65-13.89,8.81-22.06a57.59,57.59,0,0,0-5.69-25.26,46.19,46.19,0,0,0-7.31-11.27A4.31,4.31,0,0,0,212.7,71c-.95.06-1.44.79-.73,1.59Z" transform="translate(-38.44 -53.72)"/><path d="M240.22,63.92c3.08,4.57,4.89,10.06,6.49,15.28a175.51,175.51,0,0,1,5.23,22.86,182,182,0,0,1,2.45,25.21,89.79,89.79,0,0,1-1.84,22.37c-1.28,5.49-3.84,12.27-8.86,14.94-.77.4-.66.75.2.74a8.06,8.06,0,0,0,3.42-.9c4.95-2.63,7.61-7.66,9.21-12.84,2.15-7,2.69-14.36,2.74-21.59a177.91,177.91,0,0,0-6.9-49.29c-1.74-6.14-3.71-12.69-7.3-18-.67-1-5,1-4.84,1.26Z" transform="translate(-38.44 -53.72)"/><path d="M249.47,65.82A147.32,147.32,0,0,1,266.56,87c4.89,7.57,9.13,16.17,9.83,25.29a27.46,27.46,0,0,1-2.65,14.13c-.39.8,1.82.23,2,.17a4.43,4.43,0,0,0,2.58-1.76c8.39-17.21-3.79-36.56-14.35-49.75-3.14-3.92-6.48-7.67-9.93-11.31-1-1-5.05,1.54-4.56,2Z" transform="translate(-38.44 -53.72)"/><path d="M274.31,60.63a161.88,161.88,0,0,1,18.51,25.49,94.66,94.66,0,0,1,7.49,15.55c1.68,4.68,3,9.73,2.8,14.74a17.84,17.84,0,0,1-1.56,6.91,13.6,13.6,0,0,1-1.69,2.69c-.24.31.21-.24-.05.06-.1.12-.2.24-.31.35s-.43.46-.66.68a8.23,8.23,0,0,1-1.26,1.09c-.74.57-1.79,1.75-1.13,2.74s2.27.41,3-.12a20.08,20.08,0,0,0,7.81-12.49c.93-5,.09-10.3-1.32-15.15C302.54,91.56,296,80.86,289,71.11A160.11,160.11,0,0,0,278.4,57.77c-.78-.88-2.13-.47-3,.12-.65.46-1.91,1.87-1.13,2.74Z" transform="translate(-38.44 -53.72)"/><path d="M304.1,59.25c13.76,13,25.15,34.22,16.4,53.05a38.13,38.13,0,0,1-11.16,13.61,17.85,17.85,0,0,0,2.24,1.13c.4.16,2,1,2.42.66,8.11-6.39,13.63-15.35,14.15-25.8.49-9.7-3-19.21-8.12-27.32a70.68,70.68,0,0,0-11.38-13.73,8.11,8.11,0,0,0-2.8-1.28,4.55,4.55,0,0,0-1.44-.42c-.06,0-.52-.11-.31.1Z" transform="translate(-38.44 -53.72)"/><path d="M310.7,60c13.53,5.29,26.93,12.6,37.23,23,4,4,7.61,8.77,9.43,14.15a19.26,19.26,0,0,1-.49,14.47c-3.08,6.81-10,11.67-16.41,15.29-.94.54-1.71,2-1.06,3s2.2.77,3.14.25c6.71-3.78,13.39-8.68,17.36-15.43a23,23,0,0,0,2.85-16.46c-1.24-5.94-4.64-11.28-8.59-15.78a80.8,80.8,0,0,0-16.63-14.06A131.82,131.82,0,0,0,313.28,56c-2.24-.88-5.3,2.9-2.58,4Z" transform="translate(-38.44 -53.72)"/><path d="M172,57.17c3.83,12.08,5.74,24.67,8.41,37s6,25.14,12.49,36.2a58.84,58.84,0,0,0,14.11,16.35c.41.32,1.76,1.23,2,.36s-1.35-2.16-1.84-2.55c-9.07-7.17-14.39-18-18-28.86-3.95-12-6.07-24.43-8.61-36.74a196.37,196.37,0,0,0-4.83-19.55,5.08,5.08,0,0,0-2.31-2.55c-.44-.25-1.84-.77-1.5.31Z" transform="translate(-38.44 -53.72)"/><path d="M236.63,58.51a149.85,149.85,0,0,0,5.17,39.25c3.61,12.9,9.41,25.39,18.74,35.15a56,56,0,0,0,18.54,12.82,3.52,3.52,0,0,0,3.51-.45,1.28,1.28,0,0,0-.29-2.26c-12.08-5.13-21.31-14.6-27.57-26-6.38-11.6-9.82-24.64-11.62-37.69a165.92,165.92,0,0,1-1.53-21.48c0-2.1-5-1.58-5,.65Z" transform="translate(-38.44 -53.72)"/><path d="M118.76,69.43c4.75,18.38-3.25,38.21-18.13,49.6a48.23,48.23,0,0,1-14.43,7.6c-1,.33-.21,1.18.33,1.56.78.54,2.31,1.28,3.31,1,18.53-6,32.72-22.9,34.75-42.39a45.43,45.43,0,0,0-1.17-16c-.25-1-1.75-1.54-2.6-1.77-.38-.11-2.31-.5-2.06.45Z" transform="translate(-38.44 -53.72)"/><path d="M107,72.89c-2,20.55-18.27,35.44-36,43.79a94.91,94.91,0,0,1-16.2,5.85,2.61,2.61,0,0,0-2.09,2.74,2.22,2.22,0,0,0,2.76,1.67c20.51-5.38,41.41-17.33,51.4-36.77a47.79,47.79,0,0,0,5-17.17c.29-3.08-4.59-2.91-4.86-.11Z" transform="translate(-38.44 -53.72)"/><path d="M131.15,65.18A81.67,81.67,0,0,0,138,101.74a72.59,72.59,0,0,0,19.33,25.35,79.14,79.14,0,0,0,26,14.47,73.19,73.19,0,0,0,27.38,3.8c8.07-.49,16.22-2.63,23-7.19.73-.48,1.42-1,2.1-1.55s1.54-1.74.66-2.58-2.51-.27-3.26.34-1.33,1-2,1.5l-.57.38-.3.19-.3.18-.6.34c-.79.44-1.6.85-2.42,1.23l-1.15.5-.58.24c.67-.28-.16.06-.31.11a45.54,45.54,0,0,1-5.35,1.58l-1.41.3c.46-.09-.07,0-.25,0l-.77.13c-1,.16-2,.29-2.94.39A66,66,0,0,1,189.11,139a77.06,77.06,0,0,1-25.46-12.87,70.71,70.71,0,0,1-19.59-23.31,76.67,76.67,0,0,1-8.25-34c0-1.67,0-3.33,0-5,0-1.2-1.67-1.26-2.46-1a2.86,2.86,0,0,0-2.24,2.39Z" transform="translate(-38.44 -53.72)"/><path d="M150.57,74c.89,9.76,4.85,19.45,10,27.69,5.46,8.68,13.29,16.84,23.51,19.5a29.08,29.08,0,0,0,18-1.48,11.45,11.45,0,0,0,3.06-1.78c.61-.5.62-.78-.26-.44a27.14,27.14,0,0,1-15.66,1.37A31.74,31.74,0,0,1,176,112.09C168,105.46,162.24,96,158.56,86.35a57.16,57.16,0,0,1-3.67-14.89c0-.26-2.19.85-2.34.94-.39.23-2,1-2,1.57Z" transform="translate(-38.44 -53.72)"/><path d="M177.63,72.36c-1.06,13.34,3.81,26.85,9.82,38.54,6.68,13,15.85,25.2,27.24,34.47,5.49,4.46,11.72,8.33,18.56,10.33,3,.88,2.85-3.71.5-4.4-12.09-3.54-22-12.68-29.87-22.2a104.76,104.76,0,0,1-19.64-35.95,52.68,52.68,0,0,1-2.52-19.09,3.12,3.12,0,0,0-1.79-3,1.61,1.61,0,0,0-2.3,1.35Z" transform="translate(-38.44 -53.72)"/><path d="M206.4,75.4A98.41,98.41,0,0,0,215.55,95c4,6.5,9,12.56,15.35,16.84a31.23,31.23,0,0,0,11.61,4.86c1,.19,1.26-.51.75-1.25a4.91,4.91,0,0,0-3-1.81c-5.95-1.11-10.69-4.94-14.63-9.46a73.14,73.14,0,0,1-10.93-17.45,104.68,104.68,0,0,1-4-10c-.35-1-1.79-1.77-2.75-2.06-.68-.21-1.85-.28-1.49.76Z" transform="translate(-38.44 -53.72)"/><path d="M251.52,69.62q12,22.18,21.89,45.48,2.77,6.57,5.36,13.2a6.52,6.52,0,0,0,2.2,2.63c.28.22,1.65,1,1.26,0Q273,107.18,261.39,84.4q-3.28-6.48-6.76-12.87A6.89,6.89,0,0,0,252.18,69c-.75-.43-1.11-.2-.66.64Z" transform="translate(-38.44 -53.72)"/><path d="M288.58,73.89c7.15,17.79-.12,39.12-15.42,50.14a42.08,42.08,0,0,1-14.73,6.82,3.22,3.22,0,0,0-2.58,2.33c-.15,1.14,1,1.71,2,1.47,21-5.06,37.58-24.32,38.11-46.15a43,43,0,0,0-3.13-17.26c-.44-1.1-2.32-.53-3-.1a2.29,2.29,0,0,0-1.22,2.75Z" transform="translate(-38.44 -53.72)"/><path d="M312.35,87.31A43.21,43.21,0,0,1,316.08,84a9.64,9.64,0,0,1,1.3-.89c-.35.19.11-.08.16-.06s.07,0-.25.07a4.66,4.66,0,0,1-2.84-.27s0-.17-.05,0c.05-.21,0,0,0,.12a3.77,3.77,0,0,1,0,.75,13.42,13.42,0,0,1-.61,2.34c-1.38,4.21-3.48,8.29-4.18,12.69-.14.86,2.15,1,2.51,1,2.5-.07,5-.14,7.5-.15.91,0,1.81,0,2.71,0l.65,0c.71,0-.52,0,.15,0l1.11.07,1,.1.45.06s-.56-.1-.19,0,.49.11.74.15c.52.1-.39-.16.23.08l.27.11c.33.12-.34-.21-.06,0l.36.22.2.14c.22.18-.21-.23,0,0a4.29,4.29,0,0,1,.28.35,2.85,2.85,0,0,1,.54,1.57c.13.82.16,1.66.22,2.49a36.45,36.45,0,0,0,1.21,7.56A48.73,48.73,0,0,0,335.91,126c.79,1.2,5.56.55,4.81-.58a47.8,47.8,0,0,1-6.2-12.57,36,36,0,0,1-1.33-8c-.1-1.49-.06-3.3-.94-4.58-1.22-1.76-3.82-2.12-5.76-2.36-4.75-.59-9.66-.26-14.42-.12l2.51.95c.65-4.08,2.54-7.89,3.87-11.77.41-1.2,1.15-2.8.94-4.1-.33-2.1-3.9-1.68-5.3-1.15-2.55,1-4.66,3.32-6.57,5.16-.73.69,1.48,1.15,1.76,1.18a3.92,3.92,0,0,0,3.07-.72Z" transform="translate(-38.44 -53.72)"/><path d="M94.46,53.86a63.42,63.42,0,0,0-24.8,13.45A89.31,89.31,0,0,0,51,89.67a92,92,0,0,0-10.84,27,62.76,62.76,0,0,0-.54,26.59,39.55,39.55,0,0,0,12.32,21.55c.82.71,1.67,1.4,2.54,2.05s5-1.93,4-2.68A38.36,38.36,0,0,1,44.9,144.3c-2.45-8.22-2.46-17-1.08-25.43A89,89,0,0,1,69.3,70.34,63.37,63.37,0,0,1,80.64,61.5a46.81,46.81,0,0,1,12.29-5.18,4.8,4.8,0,0,0,2.86-1.89c.45-1-.77-.72-1.33-.57Z" transform="translate(-38.44 -53.72)"/><path d="M259.51,206.46c-.66,1.81-1.34,3.62-2,5.43,0,.11.89,0,.75,0a21.58,21.58,0,0,0,3.42-.92c.18-.07.58-.17.66-.37.66-1.82,1.34-3.62,2-5.44,0-.1-.89,0-.76,0a17.23,17.23,0,0,0-1.73.38,16.43,16.43,0,0,0-1.68.54c-.19.07-.59.16-.66.37Z" transform="translate(-38.44 -53.72)"/><path d="M266.68,207l-.55,4.46a2,2,0,0,0,.56,1.57,2.75,2.75,0,0,0,1.7.81,2.71,2.71,0,0,0,1.82-.43,2.13,2.13,0,0,0,.89-1.42l.55-4.46a2.06,2.06,0,0,0-.57-1.58,2.79,2.79,0,0,0-3.51-.37,2.09,2.09,0,0,0-.89,1.42Z" transform="translate(-38.44 -53.72)"/><path d="M171.66,58.45a202.64,202.64,0,0,0-22.25,39c-.37.88-.74,1.77-1.08,2.66a2.65,2.65,0,0,0,1.81,3.46c3,.75,6.39-1.08,9-2.31,4.5-2.16,8.81-4.74,13.07-7.33C183.56,87,194.65,79.66,206,72.64c5.05-3.13,10.14-6.23,15.37-9.06,1.07-.57,2.15-1.14,3.23-1.68.46-.23,1-.41,1.4-.68s-.4.13-.22.08a2.17,2.17,0,0,1,.24-.07,2.53,2.53,0,0,1-2.65-2.49c0,.44-.18.26.07-.1a4,4,0,0,0-.24.6,23.8,23.8,0,0,1-2.07,3.46c.29-.44,0,0-.13.19l-.4.56c-.28.41-.56.81-.85,1.2-.63.89-1.28,1.76-1.93,2.64-3.27,4.35-6.66,8.61-10.08,12.84-6.61,8.2-13.4,16.26-20,24.47l-1.5,1.9a2.42,2.42,0,0,0,.34,3.31c.84.77,2.52,1.12,3.33.08,6.3-8,12.93-15.78,19.35-23.69,3.61-4.45,7.2-8.91,10.68-13.46A89.77,89.77,0,0,0,227,62.67,6,6,0,0,0,228,59.34a3.08,3.08,0,0,0-4-2.6,32.79,32.79,0,0,0-6.13,3.06c-2.55,1.4-5.07,2.86-7.56,4.34-11.73,7-23.11,14.56-34.68,21.81-5,3.1-9.93,6.18-15.06,9-1.89,1-3.81,2-5.78,2.91l-.6.25c-.07,0-.71.29-.37.16s-.27.1-.34.12l-.58.21c-.61.2-1.21.33-1.83.47-.46.11.07,0,.13,0-.11,0-.23,0-.33,0-.76-.13.47.15-.07,0l1.81,3.45c3.5-9.36,8.42-18.34,13.57-26.88q4.27-7.08,9.1-13.81a2.44,2.44,0,0,0-.35-3.31c-.8-.74-2.56-1.15-3.33-.08Z" transform="translate(-38.44 -53.72)"/><path d="M244.32,55.05c-3.44,9.49-7.92,18.61-12.22,27.73-4.84,10.29-9.78,20.56-14,31.14a108.43,108.43,0,0,0-4.94,14.87c-.23.94,4.32,2.61,4.36,2.44,2.33-9.75,6.53-19.07,10.63-28.16,4.69-10.4,9.72-20.64,14.43-31,2.17-4.79,4.29-9.61,6.08-14.56.28-.77-4.24-2.77-4.36-2.44Z" transform="translate(-38.44 -53.72)"/><path d="M287.73,57.48c-6.61,9-12.77,18.24-18.94,27.5-7.21,10.8-14.33,21.66-21.46,32.51-3.09,4.7-6.18,9.41-9.31,14.09-.68,1,1.55,4.5,2.79,4,12-4.39,23.5-10,35.29-14.83a153.5,153.5,0,0,1,16.73-6.11,22.17,22.17,0,0,1,5.29-1,5.5,5.5,0,0,1,.91,0c.14,0,.26,0,.39.06.38,0-.08,0,.12,0a.82.82,0,0,1,.28.14c-.33-.28-.06.06-.45-.35a5.18,5.18,0,0,1-1.08-1.76,4.85,4.85,0,0,1-.09-.49,1.08,1.08,0,0,1,0,.4c.09-.44,0,.1-.07.21a8.07,8.07,0,0,1-.45,1,17.5,17.5,0,0,1-1.85,2.68,83.58,83.58,0,0,1-8.61,8.74c-1.12,1,1.77,5,2.62,4.26a93.88,93.88,0,0,0,8.26-8.31c1.19-1.42,2.64-3,3.09-4.89a5.53,5.53,0,0,0-2.93-5.74,7.41,7.41,0,0,0-4.4-.11c-5.45,1-10.73,3.13-15.86,5.15-6.79,2.69-13.5,5.6-20.21,8.5-6.48,2.81-12.94,5.71-19.57,8.14l2.79,4c6.18-9.25,12.25-18.58,18.37-27.87C266.49,96.7,273.64,85.86,281,75.14c3.18-4.65,6.38-9.29,9.73-13.83.77-1.05-2.07-5-3-3.83Z" transform="translate(-38.44 -53.72)"/><path d="M146.62,85.61c-.21.11-.42.19-.63.28-.7.3.28,0-.32.11s-1.24.34-1.87.47c-.18,0-1.3.26-.62.13-.32.07-.65.12-1,.18l-2.76.43c-3.77.53-7.56,1-11.34,1.48a68.7,68.7,0,0,0-10.55,2c-2,.61-5.39,1.58-6,3.9a2.94,2.94,0,0,0,.78,2.68,3.41,3.41,0,0,0,2.58,1.37c1.76.12,3.51.25,5.26.42,4.53.42,9.34.86,13.51,2.27l.88.32.42.18c-.39-.18,0,0,.09,0s.36.2.53.31l.27.19c.34.24-.06-.1.09.07s.21.25.31.38c.2.29-.06-.21.05.1a1,1,0,0,1,0,.4c0,.24.08-.3,0-.06a2.18,2.18,0,0,1-.11.27c-.19.38.06,0,0,.1s-.25.27-.38.41a2.29,2.29,0,0,1-.23.21c-.29.26.34-.25,0,0s-.4.28-.62.41-.47.28-.72.42c-.44.24.42-.2-.05,0l-.43.2c-.65.3-1.3.57-2,.82-.37.15-.74.28-1.11.41l-.59.2-.44.14c-1,.31-1.92.59-2.89.85-2.3.63-4.62,1.16-7,1.64-5,1-10.37,1.83-15.63,2.41-.72.08-2.43.49-2.33,1.5s2,.94,2.62.88c5.68-.64,11.34-1.51,16.94-2.67a83.3,83.3,0,0,0,13.14-3.62c2.1-.8,5.7-2.06,6.57-4.43s-2.78-3.77-4.46-4.31c-6.61-2.13-13.9-2.48-20.77-2.94l1.83.61a6.17,6.17,0,0,1-1-1.06,1.36,1.36,0,0,1-.37-.84c-.08-.4-.09-.13.09-.56s-.13.08.07-.15l.4-.4c-.46.42,1-.57.41-.26a16.45,16.45,0,0,1,1.56-.64c-.54.19.13,0,.33-.1l.8-.23c.71-.19,1.43-.35,2.15-.51l1.06-.21.67-.12,2.43-.4c1.66-.25,3.33-.47,5-.69,3.23-.41,6.47-.78,9.69-1.28,2.76-.42,5.8-.79,8.33-2,.71-.35,1.58-1,.69-1.73s-2.59-.43-3.45,0Z" transform="translate(-38.44 -53.72)"/><path d="M86.24,82.42c.21,0,.5,0,.69-.11.37-.15-.61,0-.23,0l.26,0c-.63,0-.47-.09-.26,0s-.48-.25-.23-.1-.44-.27,0,0c-.31-.22-.15-.4-.11-.17l0,.18c-.18-.06.07-.45,0,.07,0,.17-.06.34-.1.51.13-.6-.08.17-.14.34a11.91,11.91,0,0,1-.7,1.38c-.15.26-.3.52-.46.77.22-.35-.35.52-.46.68-.89,1.29-1.86,2.52-2.87,3.72a92.46,92.46,0,0,1-17,16c-.41.29-.81.58-1.23.86l-.51.34a2.41,2.41,0,0,1-.32.2c-.73.45-1.46.88-2.22,1.26-.34.18-.69.32-1,.49-.49.25.57-.18.06,0l-.54.2c-.28.09-1.23.21-.35.13-.26,0-.52.08-.78.1-1,.07-2.51.87-2.6,2s1.37,1.43,2.26,1.37c3.3-.22,6.44-2.26,9.1-4a79.58,79.58,0,0,0,10-8.07,108.09,108.09,0,0,0,9.22-9.56c1.94-2.31,4.18-4.92,5.22-7.8.38-1,.68-2.31-.1-3.24-1-1.15-2.85-1.09-4.16-.82-1,.21-2.51.77-2.6,2s1.37,1.55,2.26,1.37Z" transform="translate(-38.44 -53.72)"/><path d="M77.84,116.3c-2.4,0-4.38,1.52-6,3.13a46.12,46.12,0,0,0-6.24,7.88,78.77,78.77,0,0,0-9.24,18.77c-.73,2.27-1.54,5-.42,7.28.44.89,1.59,2.11,2.71,1.82s.87-1.77.49-2.54a1.13,1.13,0,0,1,.17.61,3,3,0,0,0,0-.42c-.08-.5,0,.11,0-.1s.05-.47.08-.71a19.82,19.82,0,0,1,.74-3,59.71,59.71,0,0,1,3.31-8.06c2.79-5.79,6.09-11.77,10.49-16.51a18.52,18.52,0,0,1,3.07-2.73c.24-.17.5-.32.75-.47a1.44,1.44,0,0,1,.47-.23l.63-.2c.14,0,.89-.09.4-.08,2.64,0,.62-4.43-1.32-4.4Z" transform="translate(-38.44 -53.72)"/><path d="M95.14,90.12c4.14,6.87,5.92,15.1,5.94,23.17s-1.8,16.76-6.88,23.32a23.22,23.22,0,0,1-10.52,7.7c-2.75,1-.07,5,2.19,4.18,18.35-6.52,22.19-29,18.48-45.9a44.67,44.67,0,0,0-5.19-13.48,3,3,0,0,0-3.11-1.59,1.72,1.72,0,0,0-.91,2.6Z" transform="translate(-38.44 -53.72)"/><path d="M113.9,67.77a101.55,101.55,0,0,1-8.33,77.81c-.18.32,4.31,1.72,5,.52a102.27,102.27,0,0,0,11.92-60.36,99.91,99.91,0,0,0-3.59-17.45c-.38-1.29-5.08-.89-5-.52Z" transform="translate(-38.44 -53.72)"/></svg>