<svg id="simomns" xmlns="http://www.w3.org/2000/svg" viewBox="0 0 400 400"><defs><style>.cls-1{fill:#fff;}</style></defs><rect id="simomns__background" class="cls-1" x="1" width="400" height="400"/><g id="simomns__mouth"><g id="simomns__eyes__smile"><path d="M175.51,279.78c.66,7.06,7.22,10.84,13.64,11.81,6.94,1.06,15.17-.21,20.71-4.78a12.6,12.6,0,0,0,4.87-9.39c.06-1.78-4.89-1.35-5,.64a9.83,9.83,0,0,1-3.11,6.77,15.31,15.31,0,0,1-6.72,3.56q-.49.14-1,.24c-.73.18.5-.08-.24.06l-.45.08c-.79.13-1.59.22-2.39.3h-.14l-.46,0h-1.15l-1.14,0-.45,0-.46,0c.2,0,.22,0,.05,0a15.66,15.66,0,0,1-7.5-2.63,9.84,9.84,0,0,1-4.15-7.24c-.18-1.87-5.14-1.28-5,.65Z"/></g></g><g id="simomns__ear"><path d="M344.54,193.75a29.2,29.2,0,0,1,11.36-1.46,25.86,25.86,0,0,1,5,.91c.86.25,1.7.54,2.53.87.55.22,1.32.57,2.13,1l1,.57.25.15.59.36c.37.24.73.47,1.08.72.17.11.33.23.49.35.31.21-.35-.27-.05,0l.32.24,1,.81.46.39c.12.1.72.64.27.23.65.59,1.29,1.2,1.91,1.84.16.17.33.34.49.52l.15.16c.32.36.64.72,1,1.09.6.72,1.18,1.46,1.73,2.21.35.47.89,1.27,1.36,2s1,1.62,1.48,2.45a50,50,0,0,1,6.31,21.16c.44,6.94-.65,14.19-4.33,20.19A25.61,25.61,0,0,1,363.88,262c-1.07.22-2.14.37-3.22.49s.46,1.77.66,2c.67.67,1.76,1.55,2.79,1.43,7.74-.86,15.13-4.24,19.78-10.66,4.29-5.91,5.86-13.46,5.66-20.66a52.93,52.93,0,0,0-6.17-22.94,46.1,46.1,0,0,0-16.3-17.94,30.78,30.78,0,0,0-22.88-4.18c-1.05.23-2.09.52-3.12.85s2.11,3.83,3.46,3.4Z"/><path d="M353.26,237.57c.77-5.66,5.05-10.18,9.84-12.92a24.1,24.1,0,0,1,7.47-2.84,16.88,16.88,0,0,1,3.62-.32,12.2,12.2,0,0,1,1.47.15,4.25,4.25,0,0,1,.59.13l.43.13c-.23-.09-.21-.09,0,0,.53.21,2,.78,2.12-.2s-1.72-1.88-2.33-2.12c-5.53-2.17-11.75-.82-16.82,1.93-5.43,2.95-10,7.84-10.88,14.14-.19,1.34,4.24,3.47,4.45,1.91Z"/><path d="M358.47,224.91a19.56,19.56,0,0,1,7.08,7.74c1.54,2.8,3,6.28,2.71,9.55-.08,1,1.4.82,2,.72s2.69-.61,2.77-1.52c.29-3.54-1-7.06-2.69-10.11-1.76-3.21-4.17-6.39-7.4-8.22a3.78,3.78,0,0,0-3.15.16c-.29.12-2.22,1.18-1.34,1.68Z"/><g id="earring"><path d="M371.09,251.2l-1.64,52.37c0,.95,1,2,1.54,2.69.14.15,1.65,1.62,1.67.92l1.64-52.37c0-.95-1-2-1.54-2.69-.14-.15-1.65-1.62-1.67-.92Z"/><path d="M382.55,274.5l-24.66,3.38c-.76.11,1,1.49,1.08,1.58.7.5,1.9,1.37,2.84,1.24l24.66-3.38c.76-.11-1-1.49-1.08-1.58-.7-.5-1.9-1.37-2.84-1.24Z"/></g></g><g id="simomns__face"><path d="M49,207.08a52.11,52.11,0,0,0,6.3,15.86c.53.86,1.09,1.7,1.7,2.5s1.41,1.36,1.47,2.3c.13,2-1.14,3.64-2.36,5-5.77,6.45-10.89,13.8-13.6,22.09a30.79,30.79,0,0,0-.11,19.82c2.3,6.56,7.15,12,12.67,16,8.51,6.3,18.74,10.08,28.9,12.72a3.38,3.38,0,0,0,3.28-1.12c.57-.66.94-2-.24-2.34-9-2.35-18-5.55-25.87-10.74-5.74-3.8-10.87-8.76-13.64-15.16C41.38,260,49.81,245.16,59,234.68c1.74-2,3.35-3.85,3.93-6.52a5.19,5.19,0,0,0-.18-3.39,23.31,23.31,0,0,0-1.91-2.47,47.19,47.19,0,0,1-7.19-16.77c-.52-2.33-5.08-.42-4.65,1.55Z"/><path d="M341.58,228.44a24.48,24.48,0,0,1,8.26,10.49,27.89,27.89,0,0,1,1.48,12.49c-.86,10.44-5.34,20.45-9.95,29.72-2.91,5.85-6.08,11.57-9.28,17.27-1.14,2,3,4.77,4.28,2.44,5.81-10.36,11.69-20.83,15.7-32,3.38-9.44,5.55-20,2.1-29.76A29.43,29.43,0,0,0,344,225.65c-.84-.64-2.26-1.23-3.11-.26s-.18,2.42.65,3.05Z"/></g><g id="simomns__cheeks"><path d="M108.42,272.41c-.67,2-1.37,4-2,6-.06.16.61.47.61.47a12.29,12.29,0,0,0,1.65.65,11.33,11.33,0,0,0,1.71.45c.14,0,.72.16.78,0,.67-2,1.37-4,2.05-6,0-.16-.61-.47-.62-.47a11.78,11.78,0,0,0-1.65-.65,11.33,11.33,0,0,0-1.71-.45c-.13,0-.72-.16-.78,0Z"/><path d="M116.17,273.68l-.57,4.94a2.79,2.79,0,0,0,.34,1.65,3.47,3.47,0,0,0,1.36,1.38,1.93,1.93,0,0,0,1.51.25,1.28,1.28,0,0,0,.86-1l.57-4.94a2.78,2.78,0,0,0-.33-1.65,3.47,3.47,0,0,0-1.36-1.38,1.94,1.94,0,0,0-1.52-.25,1.32,1.32,0,0,0-.86,1Z"/><path d="M124.1,274.5a15.08,15.08,0,0,1,.18,1.9l0-.61a15.06,15.06,0,0,1-.38,3.79L124,279c0,.2-.09.39-.14.59a2.68,2.68,0,0,0,0,1.79,2.87,2.87,0,0,0,1.28,1.45,2.2,2.2,0,0,0,1.7.21,1.87,1.87,0,0,0,1.21-1.15,18,18,0,0,0,.47-7.45,3,3,0,0,0-.93-1.7,2.5,2.5,0,0,0-1.66-.66,1.88,1.88,0,0,0-1.5.74,2.34,2.34,0,0,0-.39,1.67Z"/><path d="M272.29,280.05c-.81,2.23-1.65,4.44-2.45,6.67,0,.1.89,0,.75,0a19.06,19.06,0,0,0,3.42-.92c.18-.07.58-.17.66-.37.8-2.22,1.64-4.44,2.45-6.66,0-.11-.89,0-.76,0a14.84,14.84,0,0,0-1.73.38,16.37,16.37,0,0,0-1.68.53c-.19.08-.59.17-.66.37Z"/><path d="M281.09,280.94l-.68,5.46a2.38,2.38,0,0,0,2.26,2.39,2.4,2.4,0,0,0,2.72-1.86l.68-5.46a2.37,2.37,0,0,0-2.26-2.39,2.4,2.4,0,0,0-2.72,1.86Z"/></g><g id="simomns__hair"><path d="M73.28,103.44c-5.27.32-10.33,2.88-14.68,5.7a76.89,76.89,0,0,0-25.29,28.63c-2.45,5-4.41,10.69-4.22,16.37a17,17,0,0,0,8.12,14.29,2.67,2.67,0,0,0,3.35-.54c.7-.75,1.14-2.38,0-3.06a13.31,13.31,0,0,1-4.85-4.65,9,9,0,0,1-1.2-2.58c-.16-.5-.29-1-.41-1.52L34,155.3c0-.09-.12-.91-.08-.54a22.1,22.1,0,0,1,.43-6.89,39.74,39.74,0,0,1,2.39-7.2,63.5,63.5,0,0,1,9.58-15,68.08,68.08,0,0,1,12.83-12q1.84-1.3,3.79-2.45l1-.57c.08,0,.44-.24,0,0l.51-.26c.62-.32,1.26-.62,1.9-.9s1.24-.51,1.88-.73l.87-.29c.16,0,1.09-.31.54-.17a18.67,18.67,0,0,1,3.49-.56c2.78-.18,3.36-4.54.12-4.33Z"/><path d="M84,106.58c-4.6,11.36-10.19,22.29-14.35,33.84-4,11.09-7.68,24-4.5,35.75A26.77,26.77,0,0,0,76,191.25c.83.58,2.24.27,3.13,0,.27-.08,2.26-.88,1.5-1.41a25.87,25.87,0,0,1-10.07-13.07,38.32,38.32,0,0,1-1.25-16.53c1.48-12.67,6.64-24.79,11.74-36.37,2.61-5.92,5.38-11.78,7.81-17.78.43-1.06-4.3-.79-4.82.5Z"/><path d="M113.09,110.2c-.16,21.73,3.25,44.3,12.72,64,6.25,13,17.24,27.89,33.14,28.25,8.38.18,15.83-4.47,21.58-10.18,1.69-1.68-2.41-4.45-3.85-3-4.79,4.76-10.82,9-17.59,9.49a17.77,17.77,0,0,1-7.77-1.09c-.35-.12-.7-.26-1-.4.5.2-.38-.18-.52-.25-.73-.34-1.44-.72-2.14-1.13l-.72-.44-.72-.49c-.7-.49-1.39-1-2-1.56a43.43,43.43,0,0,1-7-7.47,68.5,68.5,0,0,1-6.27-10.26,115.21,115.21,0,0,1-9.3-26.82,164.45,164.45,0,0,1-3.83-37.14c0-2-4.63-3.81-4.65-1.53Z"/><path d="M150.48,105.92c-4,10.46-4.16,22.61-2.18,33.52,2,11.13,6.77,22.71,16.35,29.39a29.87,29.87,0,0,0,19.23,4.94c1-.07,2.46-.58,2.43-1.78s-1.66-1.62-2.58-1.55A23.62,23.62,0,0,1,169.16,167a30.33,30.33,0,0,1-10-11c-5.49-9.81-7.38-21.55-6.94-32.68a53.08,53.08,0,0,1,3.14-16.74c.86-2.26-4.09-2.68-4.85-.67Z"/><path d="M207.66,104.76c6.74,9.89,14,19.39,20,29.81,5.52,9.73,10.95,21.42,9,32.9-1.1,6.44-4.77,11.76-9.79,15.82-.94.76-.34,2,.51,2.5a3.15,3.15,0,0,0,3.48-.08A29.35,29.35,0,0,0,240.94,171a33.65,33.65,0,0,0-.08-16.74c-2.93-12.52-10.12-23.84-17.28-34.32-3.73-5.46-7.66-10.78-11.38-16.24a3.17,3.17,0,0,0-3.28-1.16c-.95.23-2,1.2-1.26,2.22Z"/><path d="M213.94,116.1c6.48,7.17,10.66,16.5,13,25.8,2.45,9.64,3.23,20.28.15,29.88a29.65,29.65,0,0,1-8.23,13.1c-1.39,1.25,2.89,3.69,4.12,2.6,7.6-6.83,10.55-17,10.73-26.91a70.29,70.29,0,0,0-7-30.88,55.91,55.91,0,0,0-8.88-13.7,4.34,4.34,0,0,0-3.22-1.47c-.95.06-1.44.79-.72,1.58Z"/><path d="M248.65,105.4c3.78,5.6,6,12.33,8,18.73a214.69,214.69,0,0,1,6.4,28,222.48,222.48,0,0,1,3,30.91c.2,9.18-.17,18.55-2.29,27.52-1.47,6.25-4,13.35-9.4,17.3a12,12,0,0,1-1.56,1c-.77.41-.66.75.19.74a8.09,8.09,0,0,0,3.43-.89c6-3.19,9.24-9.4,11.17-15.68,2.62-8.51,3.28-17.59,3.33-26.44a207.53,207.53,0,0,0-2.34-31.2,226.87,226.87,0,0,0-6.09-29.08c-2-7-4.24-14.2-7.92-20.51-.34-.57-.68-1.12-1-1.66-.67-1-5,1-4.84,1.26Z"/><path d="M260,107.64a179.28,179.28,0,0,1,20.94,25.94c6,9.28,11.19,19.79,12.05,31A33.77,33.77,0,0,1,289.7,182c-.39.79,1.82.22,2,.16a4.46,4.46,0,0,0,2.58-1.75c10.31-21.09-4.71-44.85-17.65-61-3.82-4.78-7.89-9.35-12.1-13.79-1-1-5,1.54-4.57,2Z"/><path d="M290.34,101.18a197,197,0,0,1,22.83,31.48,115.39,115.39,0,0,1,9.17,19.16c2,5.71,3.62,11.88,3.33,18a21.93,21.93,0,0,1-2,8.57,17.61,17.61,0,0,1-5.09,6.21c-.75.56-1.8,1.75-1.13,2.74s2.26.41,3-.12a23.9,23.9,0,0,0,9.31-15c1.1-6.18,0-12.65-1.72-18.6-4.18-14.13-12.17-27.15-20.7-39a199.9,199.9,0,0,0-12.89-16.23c-.78-.88-2.13-.47-3,.12-.65.46-1.9,1.87-1.13,2.74Z"/><path d="M326.9,100c9.15,8.63,16.79,19.24,20.89,31.21,3.75,10.94,4.18,23.05-.73,33.71a46.49,46.49,0,0,1-13.73,16.79,18.57,18.57,0,0,0,2.24,1.13c.41.16,2,1,2.43.66,9.88-7.78,16.63-18.72,17.32-31.45.66-12-3.69-23.73-10-33.73a85.84,85.84,0,0,0-13.87-16.72,8,8,0,0,0-2.8-1.28,4.47,4.47,0,0,0-1.44-.42c-.06,0-.52-.1-.31.1Z"/><path d="M334.77,100.26c16.64,6.51,33.16,15.51,45.8,28.33,4.92,5,9.44,10.91,11.67,17.63a24,24,0,0,1-.7,17.8c-3.85,8.5-12.35,14.54-20.36,19-.94.53-1.71,2-1.06,3s2.2.77,3.14.25c8.14-4.58,16.24-10.5,21.06-18.69a27.75,27.75,0,0,0,3.37-20c-1.55-7.17-5.67-13.6-10.46-19A98.45,98.45,0,0,0,367,111.4a160.8,160.8,0,0,0-29.63-15.1c-2.25-.88-5.3,2.9-2.58,4Z"/><path d="M165,97.52c4.67,14.75,7,30.13,10.27,45.23s7.27,30.71,15.21,44.24a70.55,70.55,0,0,0,17,19.8c.41.32,1.76,1.23,2,.36s-1.35-2.16-1.84-2.55c-11.24-8.88-17.89-22.26-22.34-35.66-4.87-14.7-7.49-30-10.6-45.17a240.44,240.44,0,0,0-6-24,5,5,0,0,0-2.3-2.55c-.44-.26-1.84-.77-1.5.31Z"/><path d="M244.26,98.83a184.44,184.44,0,0,0,6.3,48c4.38,15.72,11.44,31,22.8,42.93a68.16,68.16,0,0,0,22.73,15.76,3.5,3.5,0,0,0,3.51-.45,1.27,1.27,0,0,0-.29-2.25c-14.88-6.32-26.26-18-34-32-7.84-14.28-12.07-30.33-14.27-46.39a204.54,204.54,0,0,1-1.85-26.17c0-2.1-5-1.57-5,.65Z"/><path d="M99.79,112.43a55.77,55.77,0,0,1-2.05,33.71,62,62,0,0,1-20.32,27.27,59.17,59.17,0,0,1-17.65,9.26c-1,.33-.2,1.17.34,1.56.78.54,2.31,1.27,3.31,1a61.86,61.86,0,0,0,29.07-20,61,61,0,0,0,13.39-31.76,55.39,55.39,0,0,0-1.42-19.66c-.26-1-1.76-1.53-2.61-1.77-.38-.11-2.3-.49-2.06.45Z"/><path d="M85.35,116.54c-1.17,12.2-6.56,23.3-14.61,32.46-8.19,9.33-18.79,16.43-30,21.67a116.15,116.15,0,0,1-19.9,7.19,2.59,2.59,0,0,0-2.09,2.73,2.21,2.21,0,0,0,2.75,1.67A118.2,118.2,0,0,0,58,165.92c10.74-7.29,20.15-16.82,26.1-28.44a58,58,0,0,0,6.08-20.83c.3-3.08-4.59-2.91-4.85-.11Z"/><path d="M115,106.93c-.51,15.27,2,30.68,8.32,44.65A88.91,88.91,0,0,0,147,182.65a96.73,96.73,0,0,0,31.79,17.65A89.42,89.42,0,0,0,212,204.93c9.77-.59,19.66-3.14,27.84-8.65.88-.6,1.74-1.24,2.57-1.91s1.54-1.74.66-2.58-2.51-.27-3.26.34-1.68,1.31-2.57,1.9c-.42.29-.85.56-1.29.83.49-.3.06,0-.17.1l-.75.43q-1.46.81-3,1.5c-.48.22-1,.44-1.47.64l-.66.27c.66-.26-.21.08-.4.15a53.79,53.79,0,0,1-6.6,2l-1.68.36c-.62.12.32-.06-.06,0l-.48.08-1,.17c-1.17.19-2.35.34-3.53.47a69.85,69.85,0,0,1-15.16,0,87.45,87.45,0,0,1-15.94-3.1,94.55,94.55,0,0,1-31.19-15.76,87,87,0,0,1-24.19-28.75,94.25,94.25,0,0,1-10.1-41.81q0-3,.06-6c0-1.2-1.68-1.25-2.47-1a2.87,2.87,0,0,0-2.24,2.4Z"/><path d="M138.73,117.57c1.09,11.94,5.93,23.79,12.26,33.87,6.68,10.63,16.25,20.65,28.76,23.93,7.36,1.94,14.94,1,22-1.76a11.69,11.69,0,0,0,3.06-1.77c.61-.51.62-.79-.26-.45a33.41,33.41,0,0,1-19.24,1.74,38.69,38.69,0,0,1-16.36-8.31c-9.86-8.12-16.85-19.67-21.35-31.51a69.29,69.29,0,0,1-4.5-18.25c0-.26-2.19.85-2.35.94-.38.22-2,1-2,1.57Z"/><path d="M171.87,116.07a68.35,68.35,0,0,0,2.47,22.71,118.56,118.56,0,0,0,9.55,24.27c8.14,15.79,19.25,30.58,33.07,41.83,6.7,5.46,14.31,10.18,22.66,12.63,3,.87,2.86-3.71.51-4.4-14.89-4.36-27.14-15.64-36.81-27.34A128.72,128.72,0,0,1,179,141.29c-2.27-7.58-3.71-15.68-3.08-23.52a3.1,3.1,0,0,0-1.79-3,1.61,1.61,0,0,0-2.3,1.35Z"/><path d="M207.14,119.74a120.06,120.06,0,0,0,11.2,24c4.85,7.9,10.91,15.28,18.68,20.46a36.69,36.69,0,0,0,13.64,5.68c1,.18,1.26-.51.75-1.26a5,5,0,0,0-3-1.81c-7.46-1.38-13.48-6.16-18.44-11.79a89.68,89.68,0,0,1-13.63-21.71,125.47,125.47,0,0,1-4.91-12.24c-.35-1-1.8-1.78-2.75-2.06-.68-.21-1.85-.29-1.5.75Z"/><path d="M262.31,112.73q14.76,27.2,26.83,55.73,3.41,8.08,6.59,16.27a6.68,6.68,0,0,0,2.2,2.63c.29.22,1.66,1,1.26,0q-11.37-29.17-25.58-57.15-4-7.86-8.19-15.59A6.89,6.89,0,0,0,263,112.1c-.75-.43-1.12-.21-.66.63Z"/><path d="M307.84,117.46a50.43,50.43,0,0,1,.85,34.41,55.82,55.82,0,0,1-20.08,27.69A52.15,52.15,0,0,1,270.35,188a3.24,3.24,0,0,0-2.58,2.33c-.15,1.14,1,1.71,2,1.47a60.64,60.64,0,0,0,33-21.05,59,59,0,0,0,13.13-34.83,52.38,52.38,0,0,0-3.79-21.1c-.44-1.09-2.32-.52-3-.09a2.3,2.3,0,0,0-1.23,2.75Z"/><path d="M336,134.14c1.9-1.82,3.93-3.95,6.29-5.2-.32.17.14-.06.21-.09.33-.15-.41.09-.1,0a5.1,5.1,0,0,1-2.73-.22c-.35-.18,0-.14-.07,0,.06-.23,0,.22,0,.38a4.88,4.88,0,0,1-.07.85,26.44,26.44,0,0,1-1.48,4.91c-.8,2.18-1.65,4.34-2.42,6.53a39.38,39.38,0,0,0-2,6.88c-.13.86,2.16,1,2.52,1,3.09-.09,6.19-.17,9.28-.18,1.14,0,2.29,0,3.43,0l.75,0h.15l1.38.09c.38,0,.76.06,1.14.11l.52.07c-.48-.07-.18,0,.09,0l.8.17c.28.06.32.1,0,0l.4.13c.13.05.67.3.42.17s.28.18.4.26a1.18,1.18,0,0,1,.22.17s-.19-.22,0,0a4.23,4.23,0,0,1,.34.4,3.61,3.61,0,0,1,.7,2,27.36,27.36,0,0,1,.27,3,45.15,45.15,0,0,0,1.46,9.24,59.24,59.24,0,0,0,8,16.61c.79,1.2,5.56.55,4.81-.58a58.81,58.81,0,0,1-7.59-15.36,43.89,43.89,0,0,1-1.66-9.79c-.12-1.81-.05-4-1.1-5.59-1.38-2.08-4.41-2.52-6.67-2.8-5.78-.71-11.76-.3-17.55-.14l2.51.95c.78-4.91,3-9.53,4.67-14.2.53-1.51,1.43-3.46,1.25-5.11-.26-2.37-4-2-5.57-1.39-3.05,1.16-5.6,4-7.89,6.21-.72.7,1.48,1.16,1.76,1.19a3.92,3.92,0,0,0,3.07-.73Z"/><path d="M69.32,93.48c-11.08,2.88-21.27,8.86-29.93,16.25a108.71,108.71,0,0,0-22.77,27.36,112.25,112.25,0,0,0-13.2,33C1.1,180.72.49,191.88,2.81,202.54a48.26,48.26,0,0,0,15.1,26.35c1,.86,2,1.68,3.05,2.46s5-1.93,4-2.68A47.09,47.09,0,0,1,8.27,204.33c-3-10.08-3-20.85-1.35-31.17A106.49,106.49,0,0,1,18,140.9,108.64,108.64,0,0,1,38.4,113.33a79.57,79.57,0,0,1,12.59-10A59.41,59.41,0,0,1,64.05,97c1.23-.41,2.48-.77,3.74-1.1a4.83,4.83,0,0,0,2.86-1.88c.45-1-.77-.72-1.33-.58Z"/><path d="M164.51,99.21A246.94,246.94,0,0,0,137.29,147c-.45,1.06-.89,2.12-1.29,3.19a2.64,2.64,0,0,0,1.8,3.46c3.54.91,7.73-1.41,10.78-2.88,5.6-2.7,10.95-5.91,16.25-9.14,13.94-8.48,27.54-17.52,41.4-26.11,6.2-3.85,12.44-7.64,18.86-11.09q2-1.06,4-2.06a10.36,10.36,0,0,0,1.34-.65c.19-.13-.63.18-.17.08.22,0,.37,0,0,0s-.17.07-.66-.06a4.12,4.12,0,0,1-.94-.55,2.1,2.1,0,0,1-.73-1.82c0,.4-.35.63,0,0a7.49,7.49,0,0,0-.28.71,31.6,31.6,0,0,1-2.54,4.25c.36-.54-.14.2-.23.32l-.39.57c-.38.55-.77,1.09-1.17,1.64-.77,1.08-1.56,2.14-2.36,3.21-4,5.32-8.13,10.52-12.31,15.69-8.12,10.07-16.45,20-24.56,30.05-.61.76-1.23,1.53-1.83,2.31a2.42,2.42,0,0,0,.34,3.31c.84.77,2.52,1.11,3.33.08,7.7-9.79,15.78-19.27,23.63-28.94,4.43-5.45,8.84-10.93,13.11-16.52a113.05,113.05,0,0,0,8.61-12.23,7,7,0,0,0,1.31-3.85,3.17,3.17,0,0,0-4.21-2.67A21.91,21.91,0,0,0,225,98.9q-2.09,1.06-4.13,2.19c-3.15,1.72-6.25,3.53-9.33,5.37-14.31,8.55-28.2,17.78-42.32,26.62-6.07,3.8-12.17,7.57-18.46,11-2.34,1.27-4.7,2.5-7.14,3.57l-.67.28c-.21.09-.76.3-.24.1-.48.19-1,.36-1.44.52a18.66,18.66,0,0,1-2.2.56c-.59.12.22,0,0,0a2.81,2.81,0,0,0-.41,0,1.56,1.56,0,0,0-.37,0c-.24.06.71.14.2,0l1.81,3.46c1.21-3.23,2.65-6.39,4.1-9.51A252.88,252.88,0,0,1,157,119.59q5.26-8.72,11.2-17a2.44,2.44,0,0,0-.35-3.31c-.8-.74-2.56-1.15-3.33-.08Z"/><path d="M253.62,94.94c-4.2,11.63-9.69,22.79-15,34-5.93,12.6-12,25.19-17.12,38.14a133.88,133.88,0,0,0-6.08,18.26c-.22.94,4.33,2.61,4.37,2.44,2.84-11.93,8-23.35,13-34.49,5.74-12.73,11.9-25.27,17.67-38,2.67-5.88,5.28-11.8,7.48-17.88.27-.77-4.25-2.77-4.37-2.44Z"/><path d="M306.66,98.07c-8.08,11-15.61,22.3-23.16,33.62-8.85,13.26-17.59,26.6-26.35,39.93-3.79,5.76-7.57,11.53-11.4,17.26-.68,1,1.54,4.5,2.79,4.05,6.68-2.45,13.2-5.32,19.73-8.14,7.92-3.42,15.83-6.88,23.82-10.15a182.26,182.26,0,0,1,20.37-7.42A26,26,0,0,1,319,166a6.88,6.88,0,0,1,1.11.05,3.58,3.58,0,0,1,.45.09c.16,0-.22,0,.16.05s.26.2,0,0c.16.15-.32-.34-.44-.5a6.75,6.75,0,0,1-.71-1.26c-.09-.26-.11-.22-.09-.46,0,.13,0,.27,0,.4,0,.3.06-.23,0,0a2.13,2.13,0,0,1-.07.27,10.51,10.51,0,0,1-.44,1.1,17.73,17.73,0,0,1-1.89,2.89,75.07,75.07,0,0,1-8.15,8.67c-1,.94-2,1.86-3,2.78s1.77,5,2.62,4.26a115.78,115.78,0,0,0,10-10c1.47-1.74,3.3-3.76,3.85-6a5.84,5.84,0,0,0-3.15-6.2c-1.63-.72-3.64-.38-5.32-.07-6.68,1.23-13.16,3.86-19.45,6.35-8.33,3.29-16.54,6.86-24.76,10.41-7.22,3.13-14.44,6.33-21.79,9.15l-2.06.77,2.8,4.05c7.55-11.31,15-22.71,22.45-34.07,8.77-13.32,17.55-26.64,26.55-39.81,3.89-5.69,7.81-11.38,11.91-16.93.77-1-2.07-5-3-3.84Z"/><path d="M133.72,132.31c-.24.12-.49.23-.74.33l-.42.15c-.23.09.28-.09.26-.08l-.34.1c-.74.22-1.49.41-2.25.58l-1.25.26c.51-.1,0,0-.2,0l-.79.14c-1,.17-2,.33-3.07.48-4.66.67-9.33,1.18-14,1.83a85.36,85.36,0,0,0-12.88,2.47c-2.32.7-6.45,1.86-7.13,4.64a3.58,3.58,0,0,0,1,3.17,6.73,6.73,0,0,0,.75.76c.94.79,2.18.68,3.35.77q3.09.21,6.18.53c5.36.53,11,1.05,15.9,2.8l1.08.41.18.08.47.25a7.28,7.28,0,0,1,.69.44,2,2,0,0,1,.29.22c-.24-.21,0-.06,0,.07a4.83,4.83,0,0,1,.34.45c.14.22,0,0,0,0a2.68,2.68,0,0,1,.07.27c0,.1,0,.54,0,.34s-.11.27-.15.38a1.49,1.49,0,0,1-.14.24s.2-.23,0,0-.33.35-.5.52a3.48,3.48,0,0,1-.28.24c.27-.23.13-.09,0,0s-.52.36-.79.52l-.85.49c-.32.17.35-.17-.13.06l-.58.28c-.78.36-1.57.68-2.37,1l-1.3.47-.68.24c-.26.08,0,0,.07,0l-.51.17c-1,.34-2.11.65-3.18.95-2.41.67-4.84,1.26-7.29,1.79-5.44,1.19-10.92,2.09-16.61,2.83-1.52.2-3,.38-4.56.55-.71.08-2.43.49-2.33,1.49s2,1,2.62.88c6.9-.76,13.77-1.82,20.57-3.22a103.42,103.42,0,0,0,16-4.38,28.33,28.33,0,0,0,5.12-2.45,6.56,6.56,0,0,0,2.76-2.81c1.08-2.88-3.35-4.42-5.3-5a58.72,58.72,0,0,0-9.63-2c-5.16-.75-10.36-1.18-15.56-1.53l1.83.61a7.33,7.33,0,0,1-1.22-1.33c-.34-.49-.39-.5-.45-1a3.13,3.13,0,0,1,0-.53c0,.32.06-.15.11-.3a2.53,2.53,0,0,1,.12-.23c.15-.29-.14.16,0,0s.3-.32.46-.48c-.22.22,0,0,.29-.19s.88-.49.37-.24a17.74,17.74,0,0,1,1.74-.73c.08,0,.58-.2.27-.1l.29-.09,1.15-.33c.81-.22,1.63-.41,2.44-.58l1.26-.26.33-.07s-.41.08-.11,0l.77-.15c1-.17,1.92-.32,2.89-.47,2.07-.32,4.14-.6,6.21-.87,4-.51,7.94-1,11.88-1.56,3.36-.51,7.09-.94,10.18-2.46.71-.35,1.59-1,.69-1.73s-2.59-.43-3.45,0Z"/><path d="M59.46,127.82c.28-.06.58-.07.86-.13.44-.11-.53,0-.18,0,.11,0,.6.06.14,0s-.09,0,0,0c.38.13-.35-.17-.17-.07.39.23-.4-.23,0,.06.14.1-.17-.39-.09-.14a1.17,1.17,0,0,0,.06.2c.14.26,0-.23,0-.1s0,.2,0,.3-.07.42-.11.63c.08-.41,0,.14-.17.43a13.36,13.36,0,0,1-.83,1.7c-.18.33-.37.64-.57,1l-.16.26s.18-.28,0-.09-.27.42-.41.63c-1.12,1.63-2.34,3.18-3.61,4.7A113.54,113.54,0,0,1,33.2,157l-1.49,1-.77.51s-.31.2-.07.05-.19.11-.24.14c-.89.55-1.78,1.07-2.71,1.54-.43.22-.88.41-1.32.63s.52-.18-.08,0l-.6.21-.51.16c-.38.12-.55.1,0,0-.34,0-.67.12-1,.14-1,.06-2.51.87-2.6,2s1.37,1.43,2.26,1.37c3.92-.26,7.68-2.73,10.84-4.85a100.36,100.36,0,0,0,12.07-9.78,131.29,131.29,0,0,0,11.22-11.65c2.37-2.8,5.05-5.93,6.35-9.41.44-1.17.83-2.68-.06-3.76-1.06-1.3-3.18-1.2-4.65-.9-1,.21-2.51.77-2.6,2s1.37,1.56,2.26,1.37Z"/><path d="M49.27,170.22c-2.86,0-5.26,1.9-7.24,3.82a56.05,56.05,0,0,0-7.49,9.46,96.83,96.83,0,0,0-11.34,23c-.85,2.62-1.92,5.95-.6,8.6.45.88,1.59,2.1,2.71,1.81s.87-1.77.49-2.54c0-.06.28.66.05.08.26.65,0,.22,0-.09s0-.62,0-.15c0-.29.05-.58.09-.88a24.41,24.41,0,0,1,.93-3.84,74.64,74.64,0,0,1,4.05-9.88C34.4,192.38,38.51,185,44,179.09a22.18,22.18,0,0,1,3.71-3.27c.31-.21.62-.4.95-.58a1.39,1.39,0,0,1,.53-.25,6.58,6.58,0,0,1,.89-.28c.16,0,1-.1.52-.09,2.64,0,.62-4.43-1.33-4.4Z"/><path d="M70.78,137.53c5.11,8.46,7.31,18.66,7.34,28.6s-2.21,20.67-8.46,28.77a28.74,28.74,0,0,1-13.13,9.61c-2.75,1-.07,5,2.19,4.19,10.45-3.7,17.61-12.28,21.1-22.62,3.57-10.59,3.67-22.37,1.28-33.23a54,54,0,0,0-6.31-16.33,3,3,0,0,0-3.1-1.59,1.71,1.71,0,0,0-.91,2.6Z"/><path d="M93.88,110.31a124.66,124.66,0,0,1-1.43,75.4,123.1,123.1,0,0,1-8.79,19.95c-.17.32,4.32,1.72,5,.52a125.15,125.15,0,0,0,14.59-74.1,122.19,122.19,0,0,0-4.37-21.25c-.39-1.29-5.08-.89-5-.52Z"/></g><g id="simomns__eyes"><g id="simomns__eyes__normal"><path d="M76.41,241.74,140,226.5l17.94-4.31-1.9-4.51L99.74,236.27l-15.9,5.26c-2.35.78-.16,5.05,1.91,4.52q29.19-7.55,58.46-14.74,8.41-2.07,16.84-4.12l-2.36-1.34-.09-.17-.24-1.16c0-.53-.19-.11-.63.14a7.34,7.34,0,0,1-1.36.56c-1.26.41-2.54.77-3.81,1.16l-7.64,2.32-15,4.56-30.3,9.2-17.18,5.21c-2.45.75-.12,4.74,1.91,4.52,10.53-1.1,20.66-4.12,30.71-7.34a294.85,294.85,0,0,1,31.2-8.55c6.36-1.29,12.75-2.4,19.14-3.5,2.39-.41.22-4.88-1.9-4.52-11.12,1.92-22.27,3.83-33.18,6.78-10.1,2.74-19.92,6.41-30,9.15a113,113,0,0,1-17.85,3.46l1.91,4.52,65.37-19.84c3-.91,6-1.7,8.95-2.73a6.51,6.51,0,0,0,3.17-1.88,3.2,3.2,0,0,0-.32-3.73c-.5-.67-1.39-1.57-2.35-1.34q-29.32,7.13-58.56,14.57-8.37,2.13-16.74,4.29l1.91,4.52L142,227.45l15.9-5.26c2.36-.78.17-5-1.9-4.51L92.45,232.91l-17.94,4.31c-2.39.57-.19,5,1.9,4.52Z"/><path d="M228.34,224.93l66.73,11L314,239l3.87-2.91-57.47-7.59-16.35-2.17c-.94-.12-2.12.77-2.82,1.3-.21.16-1.75,1.41-1,1.61,18.64,5.22,37.71,8.7,56.79,11.85,5.58.92,11.16,1.8,16.74,2.69l3.86-2.91-62.88-5.56-17.82-1.58a4.88,4.88,0,0,0-2.82,1.3c-.26.2-1.73,1.32-1,1.61a55.44,55.44,0,0,0,13.85,3.44c5.21.76,10.44,1.3,15.65,2q15.93,2.13,31.72,5.07,9,1.68,17.89,3.62c.88.2,2.17-.8,2.82-1.3.19-.14,1.75-1.45,1-1.6q-15.78-3.45-31.73-6c-10.48-1.71-21-3-31.51-4.36-5.38-.72-10.84-1.6-15.87-3.73L233,236.65l62.87,5.56,17.83,1.58c1,.09,2.09-.75,2.82-1.3.17-.13,1.76-1.49,1-1.61-19.3-3.06-38.63-6.12-57.69-10.51q-8-1.83-15.84-4l-3.86,2.91,57.47,7.6L314,239c1,.12,2.13-.77,2.83-1.3.17-.13,1.75-1.49,1-1.61l-66.73-11-19-3.12c-.92-.15-2.14.79-2.82,1.3-.17.13-1.75,1.49-1,1.61Z"/></g></g></svg>